<svg xmlns="http://www.w3.org/2000/svg" width="100" height="100" viewBox="0 0 100 100">
  <g id="グループ_11" data-name="グループ 11" transform="translate(536 199)">
    <rect id="長方形_7" data-name="長方形 7" width="100" height="100" rx="10" transform="translate(-536 -199)" fill="#fff"/>
    <g id="グループ_6" data-name="グループ 6" transform="translate(-545.037 -173.882)">
      <path id="パス_15" data-name="パス 15" d="M667.931,25.634a9.176,9.176,0,0,1-4.131,8.01,9.221,9.221,0,0,1-13.608-4.69,9.751,9.751,0,0,1,3.478-11.317,9.117,9.117,0,0,1,13.995,5.529A9.243,9.243,0,0,1,667.931,25.634Z" transform="translate(-582.768 -0.198)" fill="#80bf3b"/>
      <path id="パス_16" data-name="パス 16" d="M15.05,25.4c.04-3.921,1.64-7.029,5.265-8.654a9.01,9.01,0,0,1,12.746,6.463,9.6,9.6,0,0,1-1.61,8.056A8.817,8.817,0,0,1,23.33,34.84a9.066,9.066,0,0,1-8.274-8.257C15.017,26.193,15.05,25.8,15.05,25.4Z" transform="translate(0 0)" fill="#80bf3b"/>
      <path id="パス_17" data-name="パス 17" d="M466.81,19.749c0-.965.006-1.93,0-2.894,0-.329.091-.486.46-.505a35.96,35.96,0,0,0,4.171-.434c.284-.048.4.07.369.349-.207,1.633-.269,3.277-.325,4.919-.113,3.316-.137,6.632,0,9.948a26.02,26.02,0,0,0,.213,2.762c.074.5.031.567-.494.578q-1.631.035-3.262.023c-.523,0-.6-.12-.633-.673-.014-.235.114-.573-.123-.676-.2-.086-.362.229-.535.37a5.568,5.568,0,0,1-7.132-.5,6.632,6.632,0,0,1-1.871-4.846,6.587,6.587,0,0,1,1.853-5.016,5.444,5.444,0,0,1,5.578-1.323,3.132,3.132,0,0,1,1.419.923c.089.093.167.266.316.213s.093-.237.094-.363c.005-.951,0-1.9,0-2.855Z" transform="translate(-406.48 -0.022)" fill="#80bf3b"/>
      <path id="パス_18" data-name="パス 18" d="M892.864,96.1a39.823,39.823,0,0,0-.158-5.294,15.265,15.265,0,0,0-.357-1.837c-.089-.335.01-.474.356-.512a31.555,31.555,0,0,0,3.612-.607c.4-.093.555.059.6.417.03.229.045.46.082.687.077.468.079.464.47.228a6.694,6.694,0,0,1,2.658-1.079c.067-.008.134-.023.2-.028.919-.078,1.062.05.952.96a22.733,22.733,0,0,0-.09,3.095c.012.792-.051.845-.862.833a12.473,12.473,0,0,0-1.628-.025c-.908.1-1.262.429-1.274,1.358-.023,1.808-.014,3.615.094,5.422.043.72.029.746-.685.79a23.407,23.407,0,0,1-3.5-.038c-.363-.032-.477-.235-.475-.575C892.869,98.629,892.864,97.364,892.864,96.1Z" transform="translate(-805.68 -66.07)" fill="#80bf3b"/>
      <path id="パス_19" data-name="パス 19" d="M260.868,78.72c.207-.05.37.076.5.268a17.257,17.257,0,0,1,1.442,2.459.45.45,0,0,1-.015.5c-.121.172-.264.07-.4.055a2.507,2.507,0,0,0-1.688.318,1.149,1.149,0,0,0-.371,1.69,16.826,16.826,0,0,0,1.311,1.507,3.758,3.758,0,0,1,.608,4.185,2.815,2.815,0,0,1-.942,1.152,8.265,8.265,0,0,1-4.042,1.711.741.741,0,0,1-.753-.275,15.18,15.18,0,0,1-1.57-2.475c-.151-.3-.118-.469.267-.52.511-.068,1.018-.172,1.52-.288a1.234,1.234,0,0,0,.8-2.133c-.346-.469-.755-.892-1.145-1.328a3.359,3.359,0,0,1,.04-4.836A6.466,6.466,0,0,1,260.868,78.72Z" transform="translate(-220.253 -57.699)" fill="#80bf3b"/>
      <path id="パス_20" data-name="パス 20" d="M378.382,105.309c-.625-.015-1.249-.006-1.874-.063-.426-.039-.51-.256-.5-.619q.042-2.121.066-4.242a57.736,57.736,0,0,0-.184-6.194c-.025-.257-.05-.514-.087-.769-.045-.315.118-.425.4-.414a6.69,6.69,0,0,1,.731.058,16.908,16.908,0,0,0,3.459-.02c.325-.018.527.044.479.442a68.8,68.8,0,0,0-.24,9.736c.01.5-.007,1.007.016,1.509.016.351-.134.474-.469.513C379.577,105.316,378.979,105.29,378.382,105.309Z" transform="translate(-331.312 -70.83)" fill="#80bf3b"/>
      <path id="パス_21" data-name="パス 21" d="M1019.352,100.124a39.791,39.791,0,0,0-.225-6.671c-.048-.365.132-.473.441-.452.528.036,1.055.09,1.583.134a21.784,21.784,0,0,0,2.563-.1c.365-.013.52.08.474.481a71.716,71.716,0,0,0-.241,9.241q.015,1,.045,2a.4.4,0,0,1-.422.475,22.353,22.353,0,0,1-3.784,0c-.314-.027-.443-.166-.44-.5C1019.359,103.194,1019.352,101.659,1019.352,100.124Z" transform="translate(-922.132 -70.823)" fill="#80bf3b"/>
      <path id="パス_22" data-name="パス 22" d="M1022.231,30.925a2.431,2.431,0,0,1-2.318-1.152,2.229,2.229,0,0,1,1.818-3.271,3.039,3.039,0,0,1,1.484.149,2.278,2.278,0,0,1,1.248,3.218,2,2,0,0,1-1.7,1.027C1022.589,30.919,1022.412,30.916,1022.231,30.925Z" transform="translate(-922.603 -9.727)" fill="#82bf3b"/>
      <path id="パス_23" data-name="パス 23" d="M378.962,30.766a3.492,3.492,0,0,1-1.166-.126,2.147,2.147,0,0,1-1.578-2.044,2.19,2.19,0,0,1,1.444-2.07,2.844,2.844,0,0,1,2.109-.029,2.238,2.238,0,0,1,1.3,3.16,1.926,1.926,0,0,1-1.738,1.089C379.168,30.765,379,30.763,378.962,30.766Z" transform="translate(-331.7 -9.574)" fill="#82bf3b"/>
      <path id="パス_24" data-name="パス 24" d="M709.772,79.326a4.706,4.706,0,0,1,2.63-4.362,4.057,4.057,0,0,1,5.447,2.052,5.037,5.037,0,0,1-1.129,5.892,4.141,4.141,0,0,1-6.761-2.126A5.367,5.367,0,0,1,709.772,79.326Z" transform="translate(-638.032 -53.883)" fill="#fff"/>
      <path id="パス_25" data-name="パス 25" d="M82.8,79.52a4.6,4.6,0,0,1-2.738,4.362,4.189,4.189,0,0,1-5.772-3.416A5.05,5.05,0,0,1,75.469,76.3a3.887,3.887,0,0,1,3.955-1.349,4.169,4.169,0,0,1,3.107,2.885A4.549,4.549,0,0,1,82.8,79.52Z" transform="translate(-54.366 -54.15)" fill="#fff"/>
      <path id="パス_26" data-name="パス 26" d="M519.087,135.372a2.37,2.37,0,1,1-4.7-.025,3.977,3.977,0,0,1,.087-.6,2.251,2.251,0,0,1,2.181-1.847,2.485,2.485,0,0,1,2.335,1.821A1.9,1.9,0,0,1,519.087,135.372Z" transform="translate(-458.585 -107.465)" fill="#fff"/>
    </g>
  </g>
</svg>
